Coordinates
version=1
nRows=8
nColumns=33
inDegrees=yes

Units are S.I. units (second, meters, Newtons, ...)
Angles are in degrees.

endheader
time	ground_thorax_rot_x	ground_thorax_rot_y	ground_thorax_rot_z	ground_thorax_tx	ground_thorax_ty	ground_thorax_tz	clav_prot_r	clav_elev_r	scapula_abduction_r	scapula_elevation_r	scapula_upward_rot_r	scapula_winging_r	shoulder_elv_r	plane_of_elev_r	axial_rot_r	elbow_flexion_r	pro_sup_r	wrist_flex_r	wrist_dev_r	clav_prot_l	clav_elev_l	scapula_abduction_l	scapula_elevation_l	scapula_upward_rot_l	scapula_winging_l	shoulder_elv_l	plane_of_elev_l	axial_rot_l	elbow_flexion_l	pro_sup_l	wrist_flex_l	wrist_dev_l
      6.24000000	     39.89678882	      9.36553511	     11.84034302	   -236.90928860	    847.06566079	      2.98412755	     13.22402614	     36.00828835	     36.48887820	     45.00000000	    -45.00000000	   1354.48291491	  -2983.20184217	    143.37380996	    179.99999979	   2173.70950932	     56.68860997	     22.71682814	      5.90889470	     -1.36460011	    -45.00000000	    -40.33401467	     45.00000000	     10.75573904	  -2769.77279506	  -1710.59506178	     13.75485225	    179.99999979	   1085.79897955	    210.95035688	     10.76833012	    -19.88688633
      6.25000000	     39.90114728	      9.26797521	     11.78080525	   -237.34408474	    847.01968839	      2.97647492	     13.00893540	     36.11740693	     36.36570770	     45.00000000	    -45.00000000	   1354.44730075	  -2983.25930719	    143.19741228	    179.99999979	   2173.62074111	     56.74438454	     22.78775925	      5.54664978	     -1.26895060	    -45.00000000	    -39.97048080	     45.00000000	     10.79047800	  -2769.93274640	  -1710.62857901	     13.78540455	    179.99999979	   1086.03060107	    210.94216543	     10.41649718	    -19.92412756
      6.26000000	     39.97917687	      9.44260950	     11.90631084	   -237.72294398	    846.95314575	      2.96142989	     13.16300416	     35.93068385	     36.54279912	     45.00000000	    -45.00000000	   1354.54755661	  -2983.19468999	    143.69630453	    179.99999979	   2173.58720634	     56.89969639	     22.70543482	      5.93835227	     -1.58370745	    -45.00000000	    -40.62079287	     45.00000000	     10.65717695	  -2769.70171194	  -1710.50955225	     13.48655641	    179.99999979	   1085.75802368	    210.99276492	     10.71909107	    -19.95449955
      6.27000000	     39.93492296	      9.26900445	     11.81446358	   -238.05932950	    846.86222034	      2.94469363	     13.04741021	     36.07630523	     36.38250792	     45.00000000	    -45.00000000	   1354.49806741	  -2983.34487582	    143.39158565	    179.99999979	   2173.55723596	     56.93521025	     22.75715054	      5.57779225	     -1.27854356	    -45.00000000	    -40.15674665	     45.00000000	     10.65034370	  -2769.79669673	  -1710.58135722	     13.68740506	    179.99999979	   1085.99918619	    211.03386758	     10.45608830	    -19.96550729
      6.28000000	     39.90557021	      9.32338051	     11.77009276	   -238.33940816	    846.74775866	      2.92875157	     13.14281100	     35.94252804	     36.03619937	     45.00000000	    -45.00000000	   1354.61846233	  -2983.19924100	    143.37666685	    179.99999979	   2173.72230898	     56.98863932	     22.80285598	      5.73707947	     -1.38181235	    -45.00000000	    -40.12003064	     45.00000000	     10.62644440	  -2769.80311293	  -1710.70146974	     13.80451921	    179.99999979	   1086.08285765	    211.11518895	     10.61563632	    -19.99764074
      6.29000000	     39.92719612	      9.26429917	     11.81621437	   -238.56900458	    846.60526826	      2.91554766	     12.98847999	     36.04833496	     36.35054975	     45.00000000	    -45.00000000	   1354.52664467	  -2983.53513829	    143.52285719	    179.99999979	   2173.55873711	     56.97563500	     22.76950364	      5.50201605	     -1.29157710	    -45.00000000	    -40.16771787	     45.00000000	     10.58221362	  -2769.76588633	  -1710.64026035	     13.65915048	    179.99999979	   1086.03628968	    211.13832215	     10.42161062	    -20.00961021
      6.30000000	     39.92731023	      9.19970903	     11.85866353	   -238.73575978	    846.43946545	      2.90797993	     13.20629209	     35.94690050	     35.82270009	     45.00000000	    -45.00000000	   1354.79586340	  -2982.90714321	    143.18937681	    179.99999979	   2173.47373652	     56.99119697	     22.87112111	      5.76589403	     -1.32006911	    -45.00000000	    -40.00937269	     45.00000000	     10.54149298	  -2769.68808828	  -1710.66557769	     13.83520808	    179.99999979	   1086.22906439	    211.23192400	     10.55950238	    -20.02995132
      6.31000000	     39.93734928	      9.12948930	     11.84310186	   -238.85237029	    846.23439313	      2.90703905	     12.98045785	     36.00664783	     36.25789539	     45.00000000	    -45.00000000	   1354.63238323	  -2983.45141238	    143.43187317	    179.99999979	   2173.43534316	     56.85026183	     22.80763175	      5.53683531	     -1.26560490	    -45.00000000	    -40.15075792	     45.00000000	     10.53201217	  -2769.67780177	  -1710.72009799	     13.62967377	    179.99999979	   1086.06781919	    211.26248990	     10.40769628	    -20.05433967
